<svg width="159" height="51" viewBox="0 0 159 51" fill="none" xmlns="http://www.w3.org/2000/svg">
<path d="M146.097 0.00016575H12.6481C12.1616 0.00016575 11.681 0.00016575 11.1959 0.00271575C10.7898 0.00526575 10.3869 0.0126735 9.97685 0.0189083C9.0861 0.0289831 8.19745 0.104303 7.31861 0.244214C6.44101 0.38717 5.5909 0.656683 4.79703 1.04364C4.00414 1.43387 3.27965 1.94093 2.64984 2.54643C2.01673 3.15023 1.48898 3.84814 1.08689 4.61332C0.683695 5.37698 0.404116 6.19531 0.257812 7.04005C0.110117 7.88373 0.0306408 8.73713 0.020097 9.5926C0.00778675 9.98352 0.00648675 10.3757 0 10.7667V40.2374C0.00648675 40.6333 0.00778675 41.0168 0.020097 41.4128C0.030644 42.2682 0.11012 43.1216 0.257812 43.9652C0.403712 44.8105 0.683308 45.6293 1.08689 46.3932C1.4888 47.1559 2.01662 47.851 2.64984 48.4514C3.27726 49.0596 4.00222 49.567 4.79703 49.9543C5.5909 50.3423 6.44091 50.6134 7.31861 50.7586C8.1976 50.8973 9.08616 50.9727 9.97685 50.984C10.3869 50.9926 10.7898 50.9976 11.1959 50.9976C11.681 51.0002 12.1617 51.0002 12.6481 51.0002H146.097C146.574 51.0002 147.059 51.0002 147.535 50.9976C147.94 50.9976 148.354 50.9926 148.758 50.984C149.647 50.9733 150.534 50.8979 151.411 50.7586C152.292 50.6124 153.145 50.3413 153.943 49.9543C154.737 49.5668 155.461 49.0594 156.088 48.4514C156.719 47.8487 157.248 47.1541 157.655 46.3932C158.056 45.6287 158.333 44.81 158.477 43.9652C158.625 43.1215 158.707 42.2683 158.723 41.4128C158.728 41.0168 158.728 40.6333 158.728 40.2374C158.738 39.7742 158.738 39.3135 158.738 38.8428V12.1587C158.738 11.6918 158.738 11.2286 158.728 10.7667C158.728 10.3757 158.728 9.98352 158.723 9.59255C158.707 8.73701 158.625 7.88379 158.477 7.04C158.332 6.19575 158.056 5.37748 157.655 4.61327C156.837 3.07954 155.538 1.8311 153.943 1.04352C153.145 0.657514 152.292 0.388072 151.411 0.244099C150.534 0.103572 149.647 0.0282257 148.758 0.0187298C148.354 0.0125078 147.94 0.00503625 147.535 0.00255C147.059 0 146.574 0.00016575 146.097 0.00016575Z" fill="#A6A6A6"/>
<path d="M11.202 49.7492C10.7978 49.7492 10.4034 49.7442 10.0024 49.7356C9.17171 49.7252 8.34296 49.6557 7.52294 49.5276C6.75831 49.4011 6.01759 49.1656 5.32522 48.8291C4.63919 48.4953 4.01348 48.0576 3.47205 47.5329C2.92279 47.0143 2.4655 46.4129 2.11831 45.7523C1.7673 45.0875 1.52437 44.375 1.398 43.6394C1.26154 42.8491 1.1877 42.0499 1.17714 41.2488C1.16873 40.9799 1.15771 40.0846 1.15771 40.0846V10.6314C1.15771 10.6314 1.16944 9.74983 1.1772 9.49084C1.18732 8.69101 1.26072 7.89308 1.39678 7.10395C1.52339 6.36639 1.7665 5.65175 2.1177 4.98477C2.46361 4.32472 2.91836 3.72282 3.46432 3.20239C4.00966 2.67701 4.63737 2.23711 5.32457 1.89874C6.01535 1.56326 6.75467 1.32948 7.51775 1.20521C8.34046 1.07588 9.1721 1.00596 10.0057 0.996037L11.2026 0.980469H147.528L148.74 0.996661C149.566 1.0061 150.39 1.07539 151.205 1.20396C151.976 1.32979 152.723 1.5652 153.421 1.90247C154.798 2.5844 155.918 3.66328 156.625 4.98788C156.971 5.65026 157.21 6.35906 157.335 7.09026C157.473 7.88586 157.55 8.69006 157.566 9.49645C157.569 9.85753 157.569 10.2454 157.569 10.6314C157.58 11.1095 157.58 11.5646 157.58 12.0234V38.7075C157.58 39.1707 157.58 39.6227 157.569 40.0783C157.569 40.493 157.569 40.8728 157.564 41.2637C157.549 42.0557 157.473 42.8456 157.338 43.6269C157.214 44.3678 156.972 45.0859 156.621 45.7562C156.272 46.4095 155.817 47.0058 155.274 47.5229C154.732 48.0505 154.105 48.4907 153.418 48.8266C152.721 49.1658 151.975 49.4021 151.205 49.5276C150.385 49.6563 149.556 49.7259 148.725 49.7356C148.337 49.7442 147.93 49.7492 147.535 49.7492L146.097 49.7518L11.202 49.7492Z" fill="black"/>
<path d="M32.8571 26.5341C32.8714 25.4699 33.1655 24.4265 33.7121 23.5009C34.2586 22.5753 35.0399 21.7976 35.9832 21.2402C35.384 20.4176 34.5934 19.7407 33.6744 19.2631C32.7553 18.7856 31.7331 18.5206 30.6888 18.4892C28.4612 18.2644 26.3017 19.7703 25.1666 19.7703C24.0095 19.7703 22.2618 18.5115 20.3798 18.5487C19.1625 18.5865 17.9761 18.9267 16.9362 19.5363C15.8964 20.1458 15.0386 21.0038 14.4463 22.0267C11.8808 26.296 13.7944 32.5703 16.252 36.0212C17.4815 37.7111 18.9186 39.5986 20.7988 39.5317C22.6388 39.4583 23.326 38.404 25.547 38.404C27.7474 38.404 28.3922 39.5317 30.3106 39.4891C32.285 39.4583 33.529 37.7918 34.7154 36.086C35.5988 34.8819 36.2786 33.5512 36.7296 32.143C35.5826 31.6767 34.6037 30.8962 33.915 29.8988C33.2264 28.9013 32.8585 27.7312 32.8571 26.5341Z" fill="white"/>
<path d="M29.2334 16.2196C30.3099 14.9775 30.8403 13.3809 30.7119 11.769C29.0672 11.9351 27.548 12.6906 26.4569 13.885C25.9235 14.4686 25.5149 15.1474 25.2546 15.8828C24.9942 16.6182 24.8873 17.3957 24.9397 18.1708C25.7624 18.179 26.5762 18.0076 27.3199 17.6696C28.0637 17.3316 28.7179 16.8358 29.2334 16.2196Z" fill="white"/>
<path d="M56.2365 35.2849H49.9575L48.4496 39.5644H45.79L51.7374 23.7314H54.5006L60.448 39.5644H57.7431L56.2365 35.2849ZM50.6078 33.3102H55.5849L53.1314 26.3649H53.0627L50.6078 33.3102Z" fill="white"/>
<path d="M73.2921 33.7937C73.2921 37.3809 71.2946 39.6856 68.2801 39.6856C67.5165 39.724 66.757 39.5549 66.0887 39.1978C65.4204 38.8406 64.8703 38.3097 64.5013 37.666H64.4442V43.3836H61.979V28.0213H64.3652V29.9413H64.4106C64.7966 29.3007 65.356 28.7726 66.0294 28.4132C66.7028 28.0539 67.4649 27.8767 68.2347 27.9006C71.2829 27.9006 73.2921 30.2165 73.2921 33.7937ZM70.7583 33.7937C70.7583 31.4566 69.5017 29.9202 67.5844 29.9202C65.7008 29.9202 64.4339 31.489 64.4339 33.7937C64.4339 36.1196 65.7008 37.6772 67.5844 37.6772C69.5017 37.6772 70.7583 36.152 70.7583 33.7937Z" fill="white"/>
<path d="M86.5104 33.7937C86.5104 37.3809 84.5128 39.6856 81.4983 39.6856C80.7347 39.724 79.9753 39.5549 79.307 39.1977C78.6387 38.8406 78.0885 38.3097 77.7195 37.666H77.6625V43.3836H75.1973V28.0213H77.5835V29.9413H77.6288C78.0148 29.3007 78.5742 28.7726 79.2476 28.4132C79.921 28.0539 80.6831 27.8767 81.453 27.9006C84.5012 27.9006 86.5104 30.2165 86.5104 33.7937ZM83.9765 33.7937C83.9765 31.4566 82.7199 29.9201 80.8027 29.9201C78.9191 29.9201 77.6522 31.489 77.6522 33.7937C77.6522 36.1196 78.9191 37.6772 80.8027 37.6772C82.7199 37.6772 83.9765 36.152 83.9765 33.7937Z" fill="white"/>
<path d="M95.2477 35.1528C95.4303 36.7229 97.0173 37.7538 99.1858 37.7538C101.264 37.7538 102.759 36.7228 102.759 35.3071C102.759 34.0782 101.857 33.3423 99.7221 32.838L97.5873 32.3437C94.5624 31.6415 93.1581 30.2818 93.1581 28.0755C93.1581 25.3437 95.635 23.4673 99.1521 23.4673C102.633 23.4673 105.019 25.3437 105.1 28.0755H102.611C102.462 26.4954 101.103 25.5417 99.1171 25.5417C97.1312 25.5417 95.7723 26.5066 95.7723 27.9111C95.7723 29.0305 96.6403 29.6891 98.7635 30.1934L100.578 30.6217C103.958 31.3899 105.362 32.6948 105.362 35.0107C105.362 37.9729 102.908 39.8281 99.0031 39.8281C95.35 39.8281 92.8835 38.0164 92.7241 35.1527L95.2477 35.1528Z" fill="white"/>
<path d="M110.682 25.2891V28.0209H112.966V29.8972H110.682V36.261C110.682 37.2497 111.139 37.7104 112.143 37.7104C112.415 37.7058 112.685 37.6875 112.954 37.6555V39.5207C112.503 39.6018 112.044 39.6385 111.585 39.6303C109.154 39.6303 108.205 38.7525 108.205 36.5138V29.8972H106.459V28.0209H108.205V25.2891H110.682Z" fill="white"/>
<path d="M114.289 33.7932C114.289 30.1612 116.515 27.8789 119.985 27.8789C123.467 27.8789 125.682 30.1612 125.682 33.7932C125.682 37.4352 123.479 39.7075 119.985 39.7075C116.493 39.7075 114.289 37.4352 114.289 33.7932ZM123.171 33.7932C123.171 31.3017 121.983 29.8313 119.985 29.8313C117.988 29.8313 116.801 31.3129 116.801 33.7932C116.801 36.2946 117.988 37.7539 119.985 37.7539C121.983 37.7539 123.171 36.2946 123.171 33.7932Z" fill="white"/>
<path d="M127.715 28.0212H130.066V29.986H130.123C130.282 29.3724 130.656 28.8301 131.182 28.4503C131.708 28.0705 132.354 27.8763 133.012 27.9004C133.296 27.8995 133.579 27.9291 133.857 27.9889V30.2052C133.498 30.0998 133.124 30.0515 132.749 30.062C132.391 30.048 132.034 30.1087 131.702 30.2399C131.371 30.3711 131.073 30.5696 130.829 30.8219C130.585 31.0742 130.4 31.3743 130.289 31.7016C130.177 32.0288 130.14 32.3755 130.18 32.7178V39.5647H127.715L127.715 28.0212Z" fill="white"/>
<path d="M145.223 36.1739C144.891 38.2694 142.768 39.7075 140.052 39.7075C136.558 39.7075 134.389 37.4576 134.389 33.848C134.389 30.2272 136.569 27.8789 139.948 27.8789C143.271 27.8789 145.36 30.0728 145.36 33.5728V34.3846H136.878V34.5278C136.839 34.9527 136.894 35.3806 137.04 35.7833C137.186 36.186 137.42 36.5542 137.725 36.8635C138.031 37.1727 138.402 37.4159 138.812 37.577C139.223 37.738 139.665 37.8132 140.109 37.7975C140.691 37.85 141.276 37.7203 141.775 37.4277C142.275 37.1352 142.663 36.6954 142.882 36.1739L145.223 36.1739ZM136.889 32.7286H142.894C142.916 32.3467 142.856 31.9644 142.717 31.6059C142.578 31.2473 142.363 30.9202 142.087 30.6451C141.81 30.37 141.477 30.1528 141.109 30.0072C140.741 29.8616 140.346 29.7907 139.948 29.7989C139.546 29.7966 139.148 29.8707 138.777 30.017C138.406 30.1633 138.068 30.3789 137.784 30.6512C137.499 30.9236 137.274 31.2474 137.12 31.604C136.967 31.9606 136.888 32.3428 136.889 32.7286Z" fill="white"/>
<path d="M59.0801 11.6348C59.0801 12.5996 58.9004 13.4062 58.541 14.0547C58.1816 14.6992 57.6602 15.1855 56.9766 15.5137C56.293 15.8379 55.4688 16 54.5039 16H52.125V7.43359H54.7617C55.6484 7.43359 56.4141 7.59375 57.0586 7.91406C57.7031 8.23047 58.2012 8.70117 58.5527 9.32617C58.9043 9.94727 59.0801 10.7168 59.0801 11.6348ZM57.6152 11.6758C57.6152 10.9727 57.5039 10.3945 57.2812 9.94141C57.0625 9.48828 56.7383 9.15234 56.3086 8.93359C55.8828 8.71094 55.3574 8.59961 54.7324 8.59961H53.5312V14.8223H54.5273C55.5625 14.8223 56.3359 14.5586 56.8477 14.0312C57.3594 13.5039 57.6152 12.7188 57.6152 11.6758ZM65.5273 12.7422C65.5273 13.2812 65.457 13.7598 65.3164 14.1777C65.1758 14.5957 64.9707 14.9492 64.7012 15.2383C64.4316 15.5234 64.1074 15.7422 63.7285 15.8945C63.3496 16.043 62.9219 16.1172 62.4453 16.1172C62 16.1172 61.5918 16.043 61.2207 15.8945C60.8496 15.7422 60.5273 15.5234 60.2539 15.2383C59.9844 14.9492 59.7754 14.5957 59.627 14.1777C59.4785 13.7598 59.4043 13.2812 59.4043 12.7422C59.4043 12.0273 59.5273 11.4219 59.7734 10.9258C60.0234 10.4258 60.3789 10.0449 60.8398 9.7832C61.3008 9.52148 61.8496 9.39062 62.4863 9.39062C63.084 9.39062 63.6113 9.52148 64.0684 9.7832C64.5254 10.0449 64.8828 10.4258 65.1406 10.9258C65.3984 11.4258 65.5273 12.0312 65.5273 12.7422ZM60.8223 12.7422C60.8223 13.2148 60.8789 13.6191 60.9922 13.9551C61.1094 14.291 61.2891 14.5488 61.5312 14.7285C61.7734 14.9043 62.0859 14.9922 62.4688 14.9922C62.8516 14.9922 63.1641 14.9043 63.4062 14.7285C63.6484 14.5488 63.8262 14.291 63.9395 13.9551C64.0527 13.6191 64.1094 13.2148 64.1094 12.7422C64.1094 12.2695 64.0527 11.8691 63.9395 11.541C63.8262 11.209 63.6484 10.957 63.4062 10.7852C63.1641 10.6094 62.8496 10.5215 62.4629 10.5215C61.8926 10.5215 61.4766 10.7129 61.2148 11.0957C60.9531 11.4785 60.8223 12.0273 60.8223 12.7422ZM71.4121 15.9941L70.5918 12.9766C70.5527 12.8281 70.5059 12.6484 70.4512 12.4375C70.3965 12.2266 70.3418 12.0098 70.2871 11.7871C70.2324 11.5605 70.1816 11.3516 70.1348 11.1602C70.0918 10.9688 70.0586 10.8203 70.0352 10.7148H69.9883C69.9688 10.8203 69.9375 10.9688 69.8945 11.1602C69.8516 11.3516 69.8027 11.5605 69.748 11.7871C69.6934 12.0137 69.6387 12.2344 69.584 12.4492C69.5332 12.6641 69.4863 12.8477 69.4434 13L68.582 15.9941H67.0703L65.2539 9.50781H66.6484L67.4922 12.7305C67.5469 12.9492 67.5996 13.1855 67.6504 13.4395C67.7051 13.6934 67.752 13.9355 67.791 14.166C67.8301 14.3965 67.8594 14.5859 67.8789 14.7344H67.9258C67.9414 14.6289 67.9629 14.4961 67.9902 14.3359C68.0176 14.1719 68.0488 14.002 68.084 13.8262C68.1191 13.6465 68.1543 13.4785 68.1895 13.3223C68.2246 13.1621 68.2578 13.0332 68.2891 12.9355L69.2852 9.50781H70.791L71.7461 12.9355C71.7891 13.084 71.8359 13.2715 71.8867 13.498C71.9375 13.7207 71.9824 13.9453 72.0215 14.1719C72.0645 14.3945 72.0918 14.5801 72.1035 14.7285H72.1504C72.166 14.5957 72.1934 14.416 72.2324 14.1895C72.2754 13.959 72.3242 13.7148 72.3789 13.457C72.4336 13.1953 72.4902 12.9531 72.5488 12.7305L73.4102 9.50781H74.7812L72.9531 15.9941H71.4121ZM78.2754 9.39062C79.0059 9.39062 79.5742 9.58008 79.9805 9.95898C80.3906 10.334 80.5957 10.9375 80.5957 11.7695V16H79.2188V12.0273C79.2188 11.5234 79.1152 11.1465 78.9082 10.8965C78.7012 10.6426 78.3809 10.5156 77.9473 10.5156C77.3184 10.5156 76.8809 10.709 76.6348 11.0957C76.3926 11.4824 76.2715 12.043 76.2715 12.7773V16H74.8945V9.51367H75.9668L76.1602 10.3926H76.2363C76.377 10.166 76.5508 9.98047 76.7578 9.83594C76.9688 9.6875 77.2031 9.57617 77.4609 9.50195C77.7227 9.42773 77.9941 9.39062 78.2754 9.39062ZM82.9062 16H81.5234V6.88281H82.9062V16ZM89.6172 12.7422C89.6172 13.2812 89.5469 13.7598 89.4062 14.1777C89.2656 14.5957 89.0605 14.9492 88.791 15.2383C88.5215 15.5234 88.1973 15.7422 87.8184 15.8945C87.4395 16.043 87.0117 16.1172 86.5352 16.1172C86.0898 16.1172 85.6816 16.043 85.3105 15.8945C84.9395 15.7422 84.6172 15.5234 84.3438 15.2383C84.0742 14.9492 83.8652 14.5957 83.7168 14.1777C83.5684 13.7598 83.4941 13.2812 83.4941 12.7422C83.4941 12.0273 83.6172 11.4219 83.8633 10.9258C84.1133 10.4258 84.4688 10.0449 84.9297 9.7832C85.3906 9.52148 85.9395 9.39062 86.5762 9.39062C87.1738 9.39062 87.7012 9.52148 88.1582 9.7832C88.6152 10.0449 88.9727 10.4258 89.2305 10.9258C89.4883 11.4258 89.6172 12.0312 89.6172 12.7422ZM84.9121 12.7422C84.9121 13.2148 84.9688 13.6191 85.082 13.9551C85.1992 14.291 85.3789 14.5488 85.6211 14.7285C85.8633 14.9043 86.1758 14.9922 86.5586 14.9922C86.9414 14.9922 87.2539 14.9043 87.4961 14.7285C87.7383 14.5488 87.916 14.291 88.0293 13.9551C88.1426 13.6191 88.1992 13.2148 88.1992 12.7422C88.1992 12.2695 88.1426 11.8691 88.0293 11.541C87.916 11.209 87.7383 10.957 87.4961 10.7852C87.2539 10.6094 86.9395 10.5215 86.5527 10.5215C85.9824 10.5215 85.5664 10.7129 85.3047 11.0957C85.043 11.4785 84.9121 12.0273 84.9121 12.7422ZM92.7422 9.39062C93.5625 9.39062 94.1816 9.57227 94.5996 9.93555C95.0215 10.2988 95.2324 10.8652 95.2324 11.6348V16H94.2539L93.9902 15.0801H93.9434C93.7598 15.3145 93.5703 15.5078 93.375 15.6602C93.1797 15.8125 92.9531 15.9258 92.6953 16C92.4414 16.0781 92.1309 16.1172 91.7637 16.1172C91.377 16.1172 91.0312 16.0469 90.7266 15.9062C90.4219 15.7617 90.1816 15.543 90.0059 15.25C89.8301 14.957 89.7422 14.5859 89.7422 14.1367C89.7422 13.4688 89.9902 12.9668 90.4863 12.6309C90.9863 12.2949 91.7402 12.1094 92.748 12.0742L93.873 12.0332V11.6934C93.873 11.2441 93.7676 10.9238 93.5566 10.7324C93.3496 10.541 93.0566 10.4453 92.6777 10.4453C92.3535 10.4453 92.0391 10.4922 91.7344 10.5859C91.4297 10.6797 91.1328 10.7949 90.8438 10.9316L90.3984 9.95898C90.7148 9.79102 91.0742 9.6543 91.4766 9.54883C91.8828 9.44336 92.3047 9.39062 92.7422 9.39062ZM93.8672 12.9004L93.0293 12.9297C92.3418 12.9531 91.8594 13.0703 91.582 13.2812C91.3047 13.4922 91.166 13.7812 91.166 14.1484C91.166 14.4688 91.2617 14.7031 91.4531 14.8516C91.6445 14.9961 91.8965 15.0684 92.209 15.0684C92.6855 15.0684 93.0801 14.9336 93.3926 14.6641C93.709 14.3906 93.8672 13.9902 93.8672 13.4629V12.9004ZM98.3398 16.1172C97.5664 16.1172 96.9453 15.8359 96.4766 15.2734C96.0117 14.707 95.7793 13.873 95.7793 12.7715C95.7793 11.6582 96.0156 10.8164 96.4883 10.2461C96.9648 9.67578 97.5918 9.39062 98.3691 9.39062C98.6973 9.39062 98.9844 9.43555 99.2305 9.52539C99.4766 9.61133 99.6875 9.72852 99.8633 9.87695C100.043 10.0254 100.195 10.1914 100.32 10.375H100.385C100.365 10.2539 100.342 10.0801 100.314 9.85352C100.291 9.62305 100.279 9.41016 100.279 9.21484V6.88281H101.662V16H100.584L100.338 15.1152H100.279C100.162 15.3027 100.014 15.4727 99.834 15.625C99.6582 15.7734 99.4473 15.8926 99.2012 15.9824C98.959 16.0723 98.6719 16.1172 98.3398 16.1172ZM98.7266 14.998C99.3164 14.998 99.7324 14.8281 99.9746 14.4883C100.217 14.1484 100.342 13.6387 100.35 12.959V12.7773C100.35 12.0508 100.232 11.4941 99.998 11.1074C99.7637 10.7168 99.3359 10.5215 98.7148 10.5215C98.2188 10.5215 97.8398 10.7227 97.5781 11.125C97.3203 11.5234 97.1914 12.0801 97.1914 12.7949C97.1914 13.5098 97.3203 14.0566 97.5781 14.4355C97.8398 14.8105 98.2227 14.998 98.7266 14.998ZM110.496 12.7422C110.496 13.2812 110.426 13.7598 110.285 14.1777C110.145 14.5957 109.939 14.9492 109.67 15.2383C109.4 15.5234 109.076 15.7422 108.697 15.8945C108.318 16.043 107.891 16.1172 107.414 16.1172C106.969 16.1172 106.561 16.043 106.189 15.8945C105.818 15.7422 105.496 15.5234 105.223 15.2383C104.953 14.9492 104.744 14.5957 104.596 14.1777C104.447 13.7598 104.373 13.2812 104.373 12.7422C104.373 12.0273 104.496 11.4219 104.742 10.9258C104.992 10.4258 105.348 10.0449 105.809 9.7832C106.27 9.52148 106.818 9.39062 107.455 9.39062C108.053 9.39062 108.58 9.52148 109.037 9.7832C109.494 10.0449 109.852 10.4258 110.109 10.9258C110.367 11.4258 110.496 12.0312 110.496 12.7422ZM105.791 12.7422C105.791 13.2148 105.848 13.6191 105.961 13.9551C106.078 14.291 106.258 14.5488 106.5 14.7285C106.742 14.9043 107.055 14.9922 107.438 14.9922C107.82 14.9922 108.133 14.9043 108.375 14.7285C108.617 14.5488 108.795 14.291 108.908 13.9551C109.021 13.6191 109.078 13.2148 109.078 12.7422C109.078 12.2695 109.021 11.8691 108.908 11.541C108.795 11.209 108.617 10.957 108.375 10.7852C108.133 10.6094 107.818 10.5215 107.432 10.5215C106.861 10.5215 106.445 10.7129 106.184 11.0957C105.922 11.4785 105.791 12.0273 105.791 12.7422ZM114.459 9.39062C115.189 9.39062 115.758 9.58008 116.164 9.95898C116.574 10.334 116.779 10.9375 116.779 11.7695V16H115.402V12.0273C115.402 11.5234 115.299 11.1465 115.092 10.8965C114.885 10.6426 114.564 10.5156 114.131 10.5156C113.502 10.5156 113.064 10.709 112.818 11.0957C112.576 11.4824 112.455 12.043 112.455 12.7773V16H111.078V9.51367H112.15L112.344 10.3926H112.42C112.561 10.166 112.734 9.98047 112.941 9.83594C113.152 9.6875 113.387 9.57617 113.645 9.50195C113.906 9.42773 114.178 9.39062 114.459 9.39062ZM122.238 15.0039C122.418 15.0039 122.596 14.9883 122.771 14.957C122.947 14.9219 123.107 14.8809 123.252 14.834V15.877C123.1 15.9434 122.902 16 122.66 16.0469C122.418 16.0938 122.166 16.1172 121.904 16.1172C121.537 16.1172 121.207 16.0566 120.914 15.9355C120.621 15.8105 120.389 15.5977 120.217 15.2969C120.045 14.9961 119.959 14.5801 119.959 14.0488V10.5625H119.074V9.94727L120.023 9.46094L120.475 8.07227H121.342V9.51367H123.199V10.5625H121.342V14.0312C121.342 14.3594 121.424 14.6035 121.588 14.7637C121.752 14.9238 121.969 15.0039 122.238 15.0039ZM124.947 6.88281V9.17383C124.947 9.41211 124.939 9.64453 124.924 9.87109C124.912 10.0977 124.898 10.2734 124.883 10.3984H124.959C125.096 10.1719 125.264 9.98633 125.463 9.8418C125.662 9.69336 125.885 9.58203 126.131 9.50781C126.381 9.43359 126.646 9.39648 126.928 9.39648C127.424 9.39648 127.846 9.48047 128.193 9.64844C128.541 9.8125 128.807 10.0684 128.99 10.416C129.178 10.7637 129.271 11.2148 129.271 11.7695V16H127.895V12.0273C127.895 11.5234 127.791 11.1465 127.584 10.8965C127.377 10.6426 127.057 10.5156 126.623 10.5156C126.205 10.5156 125.873 10.6035 125.627 10.7793C125.385 10.9512 125.211 11.207 125.105 11.5469C125 11.8828 124.947 12.293 124.947 12.7773V16H123.57V6.88281H124.947ZM132.783 9.39062C133.361 9.39062 133.857 9.50977 134.271 9.74805C134.686 9.98633 135.004 10.3242 135.227 10.7617C135.449 11.1992 135.561 11.7227 135.561 12.332V13.0703H131.23C131.246 13.6992 131.414 14.1836 131.734 14.5234C132.059 14.8633 132.512 15.0332 133.094 15.0332C133.508 15.0332 133.879 14.9941 134.207 14.916C134.539 14.834 134.881 14.7148 135.232 14.5586V15.6777C134.908 15.8301 134.578 15.9414 134.242 16.0117C133.906 16.082 133.504 16.1172 133.035 16.1172C132.398 16.1172 131.838 15.9941 131.354 15.748C130.873 15.498 130.496 15.127 130.223 14.6348C129.953 14.1426 129.818 13.5312 129.818 12.8008C129.818 12.0742 129.941 11.457 130.188 10.9492C130.434 10.4414 130.779 10.0547 131.225 9.78906C131.67 9.52344 132.189 9.39062 132.783 9.39062ZM132.783 10.4277C132.35 10.4277 131.998 10.5684 131.729 10.8496C131.463 11.1309 131.307 11.543 131.26 12.0859H134.213C134.209 11.7617 134.154 11.4746 134.049 11.2246C133.947 10.9746 133.791 10.7793 133.58 10.6387C133.373 10.498 133.107 10.4277 132.783 10.4277Z" fill="white"/>
</svg>
